# xmcd
# Track frame offsets:
# 150
# 12648
# 28145
# 37948
# 50934
# 61249
# 71963
# 82945
# 92592
# 104645
#
# Disc length: 1538 seconds
# Revision: 0
# Processed by: cddbd v1.5.1PL2 Copyright (c) Steve Scherf et al.
# Submitted via: VisiTrax 2.10.0.248 - For more info visit www.synapsa.com
#
DISCID=8906000a
DTITLE=Bobby Bare - Folsom Prison Blues
DYEAR=1968
DGENRE=cOUNTRY
TTITLE0=Folsom Prison Blues
TTITLE1=Autumn of My Life
TTITLE2=Abilene
TTITLE3=Blowin' in the Wind
TTITLE4=Lemon Tree
TTITLE5=Try to Remember
TTITLE6=Silence Is Golden
TTITLE7=Gotta Travel On
TTITLE8=When Am I Ever Gonna Settle Down
TTITLE9=No Sad Songs for Me
EXTD=
EXTT0=
EXTT1=
EXTT2=
EXTT3=
EXTT4=
EXTT5=
EXTT6=
EXTT7=
EXTT8=
EXTT9=
PLAYORDER=
